<svg xmlns="http://www.w3.org/2000/svg" viewBox="0 0 1200 1500" width="1200" height="1500">
  <defs>
    <linearGradient id="base" x1="0" y1="0" x2="0" y2="1">
      <stop offset="0%" stop-color="#0c0e13"/>
      <stop offset="55%" stop-color="#080a0e"/>
      <stop offset="100%" stop-color="#040507"/>
    </linearGradient>
    <radialGradient id="bok" cx="50%" cy="50%" r="50%">
      <stop offset="0%" stop-color="#e8ecf4" stop-opacity="0.9"/>
      <stop offset="62%" stop-color="#e8ecf4" stop-opacity="0.35"/>
      <stop offset="100%" stop-color="#e8ecf4" stop-opacity="0"/>
    </radialGradient>
    <radialGradient id="vig" cx="50%" cy="45%" r="72%">
      <stop offset="55%" stop-color="#000" stop-opacity="0"/>
      <stop offset="100%" stop-color="#000" stop-opacity="0.72"/>
    </radialGradient>
    <filter id="soft" x="-20%" y="-20%" width="140%" height="140%">
      <feGaussianBlur stdDeviation="4.6"/>
    </filter>
    <filter id="softer" x="-30%" y="-30%" width="160%" height="160%">
      <feGaussianBlur stdDeviation="13.3"/>
    </filter>
    
  <radialGradient id="l1" cx="50%" cy="50%" r="50%">
    <stop offset="0%" stop-color="#8fa2c4" stop-opacity="0.34"/>
    <stop offset="55%" stop-color="#8fa2c4" stop-opacity="0.09520000000000002"/>
    <stop offset="100%" stop-color="#8fa2c4" stop-opacity="0"/>
  </radialGradient>
  <radialGradient id="l2" cx="50%" cy="50%" r="50%">
    <stop offset="0%" stop-color="#e8ecf4" stop-opacity="0.26"/>
    <stop offset="55%" stop-color="#e8ecf4" stop-opacity="0.0728"/>
    <stop offset="100%" stop-color="#e8ecf4" stop-opacity="0"/>
  </radialGradient>
  </defs>
  <rect width="1200" height="1500" fill="url(#base)"/>
  
        <ellipse cx="600" cy="180" rx="720" ry="450" fill="url(#l1)" transform="rotate(0 600 180)"/>
        <rect x="24" y="-75" width="14" height="1650" fill="#e8ecf4" opacity="0.099"/><rect x="157" y="-75" width="14" height="1650" fill="#e8ecf4" opacity="0.060"/><rect x="291" y="-75" width="14" height="1650" fill="#e8ecf4" opacity="0.070"/><rect x="424" y="-75" width="14" height="1650" fill="#e8ecf4" opacity="0.062"/><rect x="557" y="-75" width="14" height="1650" fill="#e8ecf4" opacity="0.052"/><rect x="691" y="-75" width="14" height="1650" fill="#e8ecf4" opacity="0.083"/><rect x="824" y="-75" width="14" height="1650" fill="#e8ecf4" opacity="0.066"/><rect x="957" y="-75" width="14" height="1650" fill="#e8ecf4" opacity="0.057"/><rect x="1091" y="-75" width="14" height="1650" fill="#e8ecf4" opacity="0.079"/>
        <ellipse cx="600" cy="1425" rx="600" ry="330" fill="url(#l2)" transform="rotate(0 600 1425)"/>
        <rect x="0" y="1290" width="1200" height="9" fill="#e8ecf4" opacity="0.12"/>
  <rect width="1200" height="1500" fill="url(#vig)"/>
</svg>
